<mxfile host="65bd71144e" modified="2021-03-04T13:35:11.489Z" agent="5.0 (Windows NT 10.0; Win64; x64) AppleWebKit/537.36 (KHTML, like Gecko) Code/1.53.2 Chrome/87.0.4280.141 Electron/11.2.1 Safari/537.36" etag="0VJII6c1fY44HqwuuQLh" version="14.2.4" type="embed">
    <diagram id="C5RBs43oDa-KdzZeNtuy" name="Page-1">
        <mxGraphModel dx="1850" dy="790" grid="1" gridSize="10" guides="1" tooltips="1" connect="1" arrows="1" fold="1" page="1" pageScale="1" pageWidth="827" pageHeight="1169" math="0" shadow="0">
            <root>
                <mxCell id="WIyWlLk6GJQsqaUBKTNV-0"/>
                <mxCell id="WIyWlLk6GJQsqaUBKTNV-1" parent="WIyWlLk6GJQsqaUBKTNV-0"/>
                <mxCell id="WIyWlLk6GJQsqaUBKTNV-2" value="" style="rounded=0;html=1;jettySize=auto;orthogonalLoop=1;fontSize=11;endArrow=block;endFill=0;endSize=8;strokeWidth=1;shadow=0;labelBackgroundColor=none;edgeStyle=orthogonalEdgeStyle;" parent="WIyWlLk6GJQsqaUBKTNV-1" source="WIyWlLk6GJQsqaUBKTNV-3" edge="1">
                    <mxGeometry relative="1" as="geometry">
                        <mxPoint x="220" y="170" as="targetPoint"/>
                    </mxGeometry>
                </mxCell>
                <mxCell id="WIyWlLk6GJQsqaUBKTNV-3" value="Scrape Variables from website using scrapy." style="rounded=1;whiteSpace=wrap;html=1;fontSize=12;glass=0;strokeWidth=1;shadow=0;" parent="WIyWlLk6GJQsqaUBKTNV-1" vertex="1">
                    <mxGeometry x="160" y="10" width="120" height="40" as="geometry"/>
                </mxCell>
                <mxCell id="H1gdDxhQc7UYBpKYg2gb-1" value="&lt;font style=&quot;font-size: 21px&quot;&gt;Putnam Valley COVID Spread Model&lt;/font&gt;" style="text;html=1;strokeColor=none;fillColor=none;align=center;verticalAlign=middle;whiteSpace=wrap;rounded=0;" parent="WIyWlLk6GJQsqaUBKTNV-1" vertex="1">
                    <mxGeometry x="340" y="20" width="366" height="20" as="geometry"/>
                </mxCell>
                <mxCell id="H1gdDxhQc7UYBpKYg2gb-7" value="" style="strokeWidth=2;html=1;shape=mxgraph.flowchart.database;whiteSpace=wrap;" parent="WIyWlLk6GJQsqaUBKTNV-1" vertex="1">
                    <mxGeometry x="190" y="170" width="60" height="60" as="geometry"/>
                </mxCell>
                <mxCell id="H1gdDxhQc7UYBpKYg2gb-8" value="Data.JSON" style="text;html=1;strokeColor=none;fillColor=none;align=center;verticalAlign=middle;whiteSpace=wrap;rounded=0;" parent="WIyWlLk6GJQsqaUBKTNV-1" vertex="1">
                    <mxGeometry x="200" y="190" width="40" height="20" as="geometry"/>
                </mxCell>
                <mxCell id="H1gdDxhQc7UYBpKYg2gb-9" value="" style="shape=curlyBracket;whiteSpace=wrap;html=1;rounded=1;size=0.5;" parent="WIyWlLk6GJQsqaUBKTNV-1" vertex="1">
                    <mxGeometry x="90" y="30" width="50" height="210" as="geometry"/>
                </mxCell>
                <mxCell id="H1gdDxhQc7UYBpKYg2gb-10" value="Scraper.py" style="text;html=1;strokeColor=none;fillColor=none;align=center;verticalAlign=middle;whiteSpace=wrap;rounded=0;" parent="WIyWlLk6GJQsqaUBKTNV-1" vertex="1">
                    <mxGeometry x="40" y="125" width="40" height="20" as="geometry"/>
                </mxCell>
                <mxCell id="H1gdDxhQc7UYBpKYg2gb-11" value="" style="shape=flexArrow;endArrow=classic;html=1;" parent="WIyWlLk6GJQsqaUBKTNV-1" edge="1">
                    <mxGeometry width="50" height="50" relative="1" as="geometry">
                        <mxPoint x="280" y="210" as="sourcePoint"/>
                        <mxPoint x="380" y="170" as="targetPoint"/>
                    </mxGeometry>
                </mxCell>
                <mxCell id="H1gdDxhQc7UYBpKYg2gb-15" style="edgeStyle=orthogonalEdgeStyle;rounded=0;orthogonalLoop=1;jettySize=auto;html=1;exitX=0.5;exitY=1;exitDx=0;exitDy=0;entryX=0.5;entryY=0;entryDx=0;entryDy=0;entryPerimeter=0;" parent="WIyWlLk6GJQsqaUBKTNV-1" source="H1gdDxhQc7UYBpKYg2gb-12" target="H1gdDxhQc7UYBpKYg2gb-13" edge="1">
                    <mxGeometry relative="1" as="geometry"/>
                </mxCell>
                <mxCell id="H1gdDxhQc7UYBpKYg2gb-12" value="Read in Data from Data.JSON" style="rounded=1;whiteSpace=wrap;html=1;absoluteArcSize=1;arcSize=14;strokeWidth=2;" parent="WIyWlLk6GJQsqaUBKTNV-1" vertex="1">
                    <mxGeometry x="400" y="70" width="100" height="100" as="geometry"/>
                </mxCell>
                <mxCell id="H1gdDxhQc7UYBpKYg2gb-19" style="edgeStyle=orthogonalEdgeStyle;rounded=0;orthogonalLoop=1;jettySize=auto;html=1;exitX=1;exitY=0.5;exitDx=0;exitDy=0;exitPerimeter=0;entryX=0;entryY=0.5;entryDx=0;entryDy=0;" parent="WIyWlLk6GJQsqaUBKTNV-1" source="H1gdDxhQc7UYBpKYg2gb-13" target="H1gdDxhQc7UYBpKYg2gb-17" edge="1">
                    <mxGeometry relative="1" as="geometry"/>
                </mxCell>
                <mxCell id="H1gdDxhQc7UYBpKYg2gb-22" style="edgeStyle=orthogonalEdgeStyle;rounded=0;orthogonalLoop=1;jettySize=auto;html=1;exitX=0;exitY=0.5;exitDx=0;exitDy=0;exitPerimeter=0;entryX=1;entryY=0.5;entryDx=0;entryDy=0;" parent="WIyWlLk6GJQsqaUBKTNV-1" source="H1gdDxhQc7UYBpKYg2gb-13" target="H1gdDxhQc7UYBpKYg2gb-20" edge="1">
                    <mxGeometry relative="1" as="geometry"/>
                </mxCell>
                <mxCell id="H1gdDxhQc7UYBpKYg2gb-51" style="edgeStyle=orthogonalEdgeStyle;rounded=0;orthogonalLoop=1;jettySize=auto;html=1;exitX=0.5;exitY=1;exitDx=0;exitDy=0;exitPerimeter=0;entryX=0;entryY=0.383;entryDx=0;entryDy=0;entryPerimeter=0;" parent="WIyWlLk6GJQsqaUBKTNV-1" source="H1gdDxhQc7UYBpKYg2gb-13" target="H1gdDxhQc7UYBpKYg2gb-26" edge="1">
                    <mxGeometry relative="1" as="geometry"/>
                </mxCell>
                <mxCell id="H1gdDxhQc7UYBpKYg2gb-13" value="" style="verticalLabelPosition=bottom;verticalAlign=top;html=1;shape=mxgraph.flowchart.sort;" parent="WIyWlLk6GJQsqaUBKTNV-1" vertex="1">
                    <mxGeometry x="400" y="230" width="100" height="100" as="geometry"/>
                </mxCell>
                <mxCell id="H1gdDxhQc7UYBpKYg2gb-16" value="Split Data To train and Test" style="text;html=1;strokeColor=none;fillColor=none;align=center;verticalAlign=middle;whiteSpace=wrap;rounded=0;" parent="WIyWlLk6GJQsqaUBKTNV-1" vertex="1">
                    <mxGeometry x="414" y="290" width="70" height="20" as="geometry"/>
                </mxCell>
                <mxCell id="H1gdDxhQc7UYBpKYg2gb-24" style="edgeStyle=orthogonalEdgeStyle;rounded=0;orthogonalLoop=1;jettySize=auto;html=1;exitX=0.5;exitY=1;exitDx=0;exitDy=0;entryX=0.5;entryY=0;entryDx=0;entryDy=0;entryPerimeter=0;" parent="WIyWlLk6GJQsqaUBKTNV-1" source="H1gdDxhQc7UYBpKYg2gb-17" target="H1gdDxhQc7UYBpKYg2gb-23" edge="1">
                    <mxGeometry relative="1" as="geometry"/>
                </mxCell>
                <mxCell id="H1gdDxhQc7UYBpKYg2gb-17" value="" style="shape=parallelogram;html=1;strokeWidth=2;perimeter=parallelogramPerimeter;whiteSpace=wrap;rounded=1;arcSize=12;size=0.23;" parent="WIyWlLk6GJQsqaUBKTNV-1" vertex="1">
                    <mxGeometry x="570" y="250" width="100" height="60" as="geometry"/>
                </mxCell>
                <mxCell id="H1gdDxhQc7UYBpKYg2gb-18" value="Train Data" style="text;html=1;strokeColor=none;fillColor=none;align=center;verticalAlign=middle;whiteSpace=wrap;rounded=0;" parent="WIyWlLk6GJQsqaUBKTNV-1" vertex="1">
                    <mxGeometry x="600" y="270" width="40" height="20" as="geometry"/>
                </mxCell>
                <mxCell id="H1gdDxhQc7UYBpKYg2gb-30" style="edgeStyle=orthogonalEdgeStyle;rounded=0;orthogonalLoop=1;jettySize=auto;html=1;exitX=0.5;exitY=1;exitDx=0;exitDy=0;entryX=0;entryY=0.75;entryDx=0;entryDy=0;entryPerimeter=0;" parent="WIyWlLk6GJQsqaUBKTNV-1" source="H1gdDxhQc7UYBpKYg2gb-20" target="H1gdDxhQc7UYBpKYg2gb-26" edge="1">
                    <mxGeometry relative="1" as="geometry"/>
                </mxCell>
                <mxCell id="H1gdDxhQc7UYBpKYg2gb-20" value="" style="shape=parallelogram;html=1;strokeWidth=2;perimeter=parallelogramPerimeter;whiteSpace=wrap;rounded=1;arcSize=12;size=0.23;" parent="WIyWlLk6GJQsqaUBKTNV-1" vertex="1">
                    <mxGeometry x="260" y="250" width="100" height="60" as="geometry"/>
                </mxCell>
                <mxCell id="H1gdDxhQc7UYBpKYg2gb-21" value="Test Data" style="text;html=1;strokeColor=none;fillColor=none;align=center;verticalAlign=middle;whiteSpace=wrap;rounded=0;" parent="WIyWlLk6GJQsqaUBKTNV-1" vertex="1">
                    <mxGeometry x="290" y="270" width="40" height="20" as="geometry"/>
                </mxCell>
                <mxCell id="H1gdDxhQc7UYBpKYg2gb-28" style="edgeStyle=orthogonalEdgeStyle;rounded=0;orthogonalLoop=1;jettySize=auto;html=1;exitX=0.5;exitY=0.88;exitDx=0;exitDy=0;exitPerimeter=0;entryX=0.5;entryY=0;entryDx=0;entryDy=0;entryPerimeter=0;" parent="WIyWlLk6GJQsqaUBKTNV-1" source="H1gdDxhQc7UYBpKYg2gb-23" target="H1gdDxhQc7UYBpKYg2gb-26" edge="1">
                    <mxGeometry relative="1" as="geometry"/>
                </mxCell>
                <mxCell id="H1gdDxhQc7UYBpKYg2gb-23" value="" style="strokeWidth=2;html=1;shape=mxgraph.flowchart.multi-document;whiteSpace=wrap;" parent="WIyWlLk6GJQsqaUBKTNV-1" vertex="1">
                    <mxGeometry x="576" y="370" width="88" height="60" as="geometry"/>
                </mxCell>
                <mxCell id="H1gdDxhQc7UYBpKYg2gb-25" value="Train The Model" style="text;html=1;strokeColor=none;fillColor=none;align=center;verticalAlign=middle;whiteSpace=wrap;rounded=0;" parent="WIyWlLk6GJQsqaUBKTNV-1" vertex="1">
                    <mxGeometry x="590" y="390" width="40" height="20" as="geometry"/>
                </mxCell>
                <mxCell id="H1gdDxhQc7UYBpKYg2gb-40" style="edgeStyle=orthogonalEdgeStyle;rounded=0;orthogonalLoop=1;jettySize=auto;html=1;exitX=0.5;exitY=0.88;exitDx=0;exitDy=0;exitPerimeter=0;entryX=0.5;entryY=0;entryDx=0;entryDy=0;entryPerimeter=0;" parent="WIyWlLk6GJQsqaUBKTNV-1" source="H1gdDxhQc7UYBpKYg2gb-26" target="H1gdDxhQc7UYBpKYg2gb-39" edge="1">
                    <mxGeometry relative="1" as="geometry"/>
                </mxCell>
                <mxCell id="H1gdDxhQc7UYBpKYg2gb-26" value="" style="strokeWidth=2;html=1;shape=mxgraph.flowchart.multi-document;whiteSpace=wrap;" parent="WIyWlLk6GJQsqaUBKTNV-1" vertex="1">
                    <mxGeometry x="576" y="510" width="88" height="60" as="geometry"/>
                </mxCell>
                <mxCell id="H1gdDxhQc7UYBpKYg2gb-27" value="Finished Model" style="text;html=1;strokeColor=none;fillColor=none;align=center;verticalAlign=middle;whiteSpace=wrap;rounded=0;" parent="WIyWlLk6GJQsqaUBKTNV-1" vertex="1">
                    <mxGeometry x="590" y="530" width="40" height="20" as="geometry"/>
                </mxCell>
                <mxCell id="H1gdDxhQc7UYBpKYg2gb-31" value="Test Model" style="text;html=1;strokeColor=none;fillColor=none;align=center;verticalAlign=middle;whiteSpace=wrap;rounded=0;" parent="WIyWlLk6GJQsqaUBKTNV-1" vertex="1">
                    <mxGeometry x="360" y="530" width="80" height="20" as="geometry"/>
                </mxCell>
                <mxCell id="H1gdDxhQc7UYBpKYg2gb-37" style="edgeStyle=orthogonalEdgeStyle;rounded=0;orthogonalLoop=1;jettySize=auto;html=1;exitX=0.5;exitY=0;exitDx=0;exitDy=0;entryX=1;entryY=0.5;entryDx=0;entryDy=0;entryPerimeter=0;" parent="WIyWlLk6GJQsqaUBKTNV-1" source="H1gdDxhQc7UYBpKYg2gb-33" target="H1gdDxhQc7UYBpKYg2gb-26" edge="1">
                    <mxGeometry relative="1" as="geometry"/>
                </mxCell>
                <mxCell id="H1gdDxhQc7UYBpKYg2gb-33" value="" style="rounded=1;whiteSpace=wrap;html=1;absoluteArcSize=1;arcSize=14;strokeWidth=2;" parent="WIyWlLk6GJQsqaUBKTNV-1" vertex="1">
                    <mxGeometry x="730" y="555" width="70" height="60" as="geometry"/>
                </mxCell>
                <mxCell id="H1gdDxhQc7UYBpKYg2gb-34" value="Optimize Model" style="text;html=1;strokeColor=none;fillColor=none;align=center;verticalAlign=middle;whiteSpace=wrap;rounded=0;" parent="WIyWlLk6GJQsqaUBKTNV-1" vertex="1">
                    <mxGeometry x="745" y="575" width="40" height="20" as="geometry"/>
                </mxCell>
                <mxCell id="H1gdDxhQc7UYBpKYg2gb-41" style="edgeStyle=orthogonalEdgeStyle;rounded=0;orthogonalLoop=1;jettySize=auto;html=1;exitX=1;exitY=0;exitDx=0;exitDy=0;exitPerimeter=0;entryX=0;entryY=0.5;entryDx=0;entryDy=0;" parent="WIyWlLk6GJQsqaUBKTNV-1" source="H1gdDxhQc7UYBpKYg2gb-39" target="H1gdDxhQc7UYBpKYg2gb-33" edge="1">
                    <mxGeometry relative="1" as="geometry"/>
                </mxCell>
                <mxCell id="H1gdDxhQc7UYBpKYg2gb-44" style="edgeStyle=orthogonalEdgeStyle;rounded=0;orthogonalLoop=1;jettySize=auto;html=1;exitX=0.5;exitY=1;exitDx=0;exitDy=0;exitPerimeter=0;entryX=0.5;entryY=0;entryDx=0;entryDy=0;entryPerimeter=0;" parent="WIyWlLk6GJQsqaUBKTNV-1" source="H1gdDxhQc7UYBpKYg2gb-39" target="H1gdDxhQc7UYBpKYg2gb-43" edge="1">
                    <mxGeometry relative="1" as="geometry"/>
                </mxCell>
                <mxCell id="H1gdDxhQc7UYBpKYg2gb-39" value="" style="strokeWidth=2;html=1;shape=mxgraph.flowchart.merge_or_storage;whiteSpace=wrap;" parent="WIyWlLk6GJQsqaUBKTNV-1" vertex="1">
                    <mxGeometry x="572.5" y="595" width="95" height="60" as="geometry"/>
                </mxCell>
                <mxCell id="H1gdDxhQc7UYBpKYg2gb-43" value="" style="strokeWidth=2;html=1;shape=mxgraph.flowchart.database;whiteSpace=wrap;" parent="WIyWlLk6GJQsqaUBKTNV-1" vertex="1">
                    <mxGeometry x="575" y="740" width="90" height="70" as="geometry"/>
                </mxCell>
                <mxCell id="H1gdDxhQc7UYBpKYg2gb-45" value="Predict.JSON" style="text;html=1;strokeColor=none;fillColor=none;align=center;verticalAlign=middle;whiteSpace=wrap;rounded=0;" parent="WIyWlLk6GJQsqaUBKTNV-1" vertex="1">
                    <mxGeometry x="600" y="770" width="40" height="20" as="geometry"/>
                </mxCell>
                <mxCell id="H1gdDxhQc7UYBpKYg2gb-47" value="Accuracy" style="text;html=1;strokeColor=none;fillColor=none;align=center;verticalAlign=middle;whiteSpace=wrap;rounded=0;" parent="WIyWlLk6GJQsqaUBKTNV-1" vertex="1">
                    <mxGeometry x="670" y="595" width="40" height="20" as="geometry"/>
                </mxCell>
                <mxCell id="H1gdDxhQc7UYBpKYg2gb-48" value="Accuracy" style="text;html=1;strokeColor=none;fillColor=none;align=center;verticalAlign=middle;whiteSpace=wrap;rounded=0;" parent="WIyWlLk6GJQsqaUBKTNV-1" vertex="1">
                    <mxGeometry x="630" y="660" width="40" height="20" as="geometry"/>
                </mxCell>
                <mxCell id="H1gdDxhQc7UYBpKYg2gb-50" value="Prediction" style="text;html=1;strokeColor=none;fillColor=none;align=center;verticalAlign=middle;whiteSpace=wrap;rounded=0;" parent="WIyWlLk6GJQsqaUBKTNV-1" vertex="1">
                    <mxGeometry x="630" y="680" width="40" height="20" as="geometry"/>
                </mxCell>
                <mxCell id="H1gdDxhQc7UYBpKYg2gb-52" value="If The model is already trained put all data into finished model and optimize&amp;nbsp;" style="text;html=1;strokeColor=none;fillColor=none;align=center;verticalAlign=middle;whiteSpace=wrap;rounded=0;" parent="WIyWlLk6GJQsqaUBKTNV-1" vertex="1">
                    <mxGeometry x="331" y="410" width="119" height="20" as="geometry"/>
                </mxCell>
                <mxCell id="H1gdDxhQc7UYBpKYg2gb-53" value="" style="shape=curlyBracket;whiteSpace=wrap;html=1;rounded=1;direction=west;size=0.5;" parent="WIyWlLk6GJQsqaUBKTNV-1" vertex="1">
                    <mxGeometry x="720" y="60" width="170" height="780" as="geometry"/>
                </mxCell>
                <mxCell id="H1gdDxhQc7UYBpKYg2gb-54" value="Model.py" style="text;html=1;strokeColor=none;fillColor=none;align=center;verticalAlign=middle;whiteSpace=wrap;rounded=0;" parent="WIyWlLk6GJQsqaUBKTNV-1" vertex="1">
                    <mxGeometry x="890" y="440" width="40" height="20" as="geometry"/>
                </mxCell>
                <mxCell id="H1gdDxhQc7UYBpKYg2gb-55" value="" style="shape=flexArrow;endArrow=classic;html=1;" parent="WIyWlLk6GJQsqaUBKTNV-1" edge="1">
                    <mxGeometry width="50" height="50" relative="1" as="geometry">
                        <mxPoint x="560" y="770" as="sourcePoint"/>
                        <mxPoint x="370" y="710" as="targetPoint"/>
                    </mxGeometry>
                </mxCell>
                <mxCell id="H1gdDxhQc7UYBpKYg2gb-58" style="edgeStyle=orthogonalEdgeStyle;rounded=0;orthogonalLoop=1;jettySize=auto;html=1;exitX=0.5;exitY=1;exitDx=0;exitDy=0;entryX=0.5;entryY=0;entryDx=0;entryDy=0;" parent="WIyWlLk6GJQsqaUBKTNV-1" source="H1gdDxhQc7UYBpKYg2gb-56" target="H1gdDxhQc7UYBpKYg2gb-57" edge="1">
                    <mxGeometry relative="1" as="geometry"/>
                </mxCell>
                <mxCell id="H1gdDxhQc7UYBpKYg2gb-56" value="Read In Data from predict.JSON" style="rounded=1;whiteSpace=wrap;html=1;absoluteArcSize=1;arcSize=14;strokeWidth=2;" parent="WIyWlLk6GJQsqaUBKTNV-1" vertex="1">
                    <mxGeometry x="250" y="640" width="100" height="100" as="geometry"/>
                </mxCell>
                <mxCell id="H1gdDxhQc7UYBpKYg2gb-71" style="edgeStyle=orthogonalEdgeStyle;rounded=0;orthogonalLoop=1;jettySize=auto;html=1;exitX=0.5;exitY=1;exitDx=0;exitDy=0;entryX=0.5;entryY=0;entryDx=0;entryDy=0;entryPerimeter=0;" parent="WIyWlLk6GJQsqaUBKTNV-1" source="H1gdDxhQc7UYBpKYg2gb-57" target="H1gdDxhQc7UYBpKYg2gb-70" edge="1">
                    <mxGeometry relative="1" as="geometry"/>
                </mxCell>
                <mxCell id="H1gdDxhQc7UYBpKYg2gb-57" value="Parse and Process Data into stored vars" style="rounded=1;whiteSpace=wrap;html=1;absoluteArcSize=1;arcSize=14;strokeWidth=2;" parent="WIyWlLk6GJQsqaUBKTNV-1" vertex="1">
                    <mxGeometry x="250" y="800" width="100" height="100" as="geometry"/>
                </mxCell>
                <mxCell id="H1gdDxhQc7UYBpKYg2gb-64" style="edgeStyle=orthogonalEdgeStyle;rounded=0;orthogonalLoop=1;jettySize=auto;html=1;exitX=1;exitY=0.5;exitDx=0;exitDy=0;exitPerimeter=0;entryX=0;entryY=0.5;entryDx=0;entryDy=0;" parent="WIyWlLk6GJQsqaUBKTNV-1" source="H1gdDxhQc7UYBpKYg2gb-59" target="H1gdDxhQc7UYBpKYg2gb-61" edge="1">
                    <mxGeometry relative="1" as="geometry"/>
                </mxCell>
                <mxCell id="H1gdDxhQc7UYBpKYg2gb-65" style="edgeStyle=orthogonalEdgeStyle;rounded=0;orthogonalLoop=1;jettySize=auto;html=1;exitX=0.5;exitY=1;exitDx=0;exitDy=0;exitPerimeter=0;entryX=0.5;entryY=0;entryDx=0;entryDy=0;" parent="WIyWlLk6GJQsqaUBKTNV-1" source="H1gdDxhQc7UYBpKYg2gb-59" target="H1gdDxhQc7UYBpKYg2gb-63" edge="1">
                    <mxGeometry relative="1" as="geometry"/>
                </mxCell>
                <mxCell id="H1gdDxhQc7UYBpKYg2gb-66" style="edgeStyle=orthogonalEdgeStyle;rounded=0;orthogonalLoop=1;jettySize=auto;html=1;exitX=0;exitY=0.5;exitDx=0;exitDy=0;exitPerimeter=0;" parent="WIyWlLk6GJQsqaUBKTNV-1" source="H1gdDxhQc7UYBpKYg2gb-59" target="H1gdDxhQc7UYBpKYg2gb-62" edge="1">
                    <mxGeometry relative="1" as="geometry"/>
                </mxCell>
                <mxCell id="H1gdDxhQc7UYBpKYg2gb-59" value="Display Type and format of data based on user selection" style="strokeWidth=2;html=1;shape=mxgraph.flowchart.decision;whiteSpace=wrap;" parent="WIyWlLk6GJQsqaUBKTNV-1" vertex="1">
                    <mxGeometry x="-125" y="990" width="130" height="120" as="geometry"/>
                </mxCell>
                <mxCell id="H1gdDxhQc7UYBpKYg2gb-61" value="Display Certain Graph for certain Model 1" style="rounded=1;whiteSpace=wrap;html=1;absoluteArcSize=1;arcSize=14;strokeWidth=2;" parent="WIyWlLk6GJQsqaUBKTNV-1" vertex="1">
                    <mxGeometry x="100" y="1000" width="100" height="100" as="geometry"/>
                </mxCell>
                <mxCell id="H1gdDxhQc7UYBpKYg2gb-62" value="&lt;span&gt;Display Certain Graph for certain Model 3&lt;/span&gt;" style="rounded=1;whiteSpace=wrap;html=1;absoluteArcSize=1;arcSize=14;strokeWidth=2;" parent="WIyWlLk6GJQsqaUBKTNV-1" vertex="1">
                    <mxGeometry x="-320" y="1000" width="100" height="100" as="geometry"/>
                </mxCell>
                <mxCell id="H1gdDxhQc7UYBpKYg2gb-63" value="&lt;span&gt;Display Certain Graph for certain Model 2&lt;/span&gt;" style="rounded=1;whiteSpace=wrap;html=1;absoluteArcSize=1;arcSize=14;strokeWidth=2;" parent="WIyWlLk6GJQsqaUBKTNV-1" vertex="1">
                    <mxGeometry x="-110" y="1180" width="100" height="100" as="geometry"/>
                </mxCell>
                <mxCell id="H1gdDxhQc7UYBpKYg2gb-69" value="Store All predictions including outdated ones" style="strokeWidth=2;html=1;shape=mxgraph.flowchart.direct_data;whiteSpace=wrap;" parent="WIyWlLk6GJQsqaUBKTNV-1" vertex="1">
                    <mxGeometry x="450" y="1010" width="150" height="70" as="geometry"/>
                </mxCell>
                <mxCell id="H1gdDxhQc7UYBpKYg2gb-72" style="edgeStyle=orthogonalEdgeStyle;rounded=0;orthogonalLoop=1;jettySize=auto;html=1;exitX=1;exitY=0.5;exitDx=0;exitDy=0;exitPerimeter=0;entryX=0.5;entryY=0;entryDx=0;entryDy=0;entryPerimeter=0;" parent="WIyWlLk6GJQsqaUBKTNV-1" source="H1gdDxhQc7UYBpKYg2gb-70" target="H1gdDxhQc7UYBpKYg2gb-69" edge="1">
                    <mxGeometry relative="1" as="geometry"/>
                </mxCell>
                <mxCell id="H1gdDxhQc7UYBpKYg2gb-73" style="edgeStyle=orthogonalEdgeStyle;rounded=0;orthogonalLoop=1;jettySize=auto;html=1;exitX=0;exitY=0.5;exitDx=0;exitDy=0;exitPerimeter=0;entryX=0.5;entryY=0;entryDx=0;entryDy=0;entryPerimeter=0;" parent="WIyWlLk6GJQsqaUBKTNV-1" source="H1gdDxhQc7UYBpKYg2gb-70" target="H1gdDxhQc7UYBpKYg2gb-59" edge="1">
                    <mxGeometry relative="1" as="geometry"/>
                </mxCell>
                <mxCell id="H1gdDxhQc7UYBpKYg2gb-70" value="Do Both&lt;br&gt;" style="verticalLabelPosition=bottom;verticalAlign=top;html=1;shape=mxgraph.flowchart.sort;" parent="WIyWlLk6GJQsqaUBKTNV-1" vertex="1">
                    <mxGeometry x="250" y="920" width="100" height="100" as="geometry"/>
                </mxCell>
                <mxCell id="H1gdDxhQc7UYBpKYg2gb-74" value="" style="shape=curlyBracket;whiteSpace=wrap;html=1;rounded=1;" parent="WIyWlLk6GJQsqaUBKTNV-1" vertex="1">
                    <mxGeometry x="-420" y="620" width="180" height="690" as="geometry"/>
                </mxCell>
                <mxCell id="H1gdDxhQc7UYBpKYg2gb-75" value="Website.py - DJANGO" style="text;html=1;align=center;verticalAlign=middle;resizable=0;points=[];autosize=1;" parent="WIyWlLk6GJQsqaUBKTNV-1" vertex="1">
                    <mxGeometry x="-560" y="955" width="140" height="20" as="geometry"/>
                </mxCell>
                <mxCell id="1" value="Total Cases Each day" style="text;html=1;align=center;verticalAlign=middle;resizable=0;points=[];autosize=1;" vertex="1" parent="WIyWlLk6GJQsqaUBKTNV-1">
                    <mxGeometry x="220" y="100" width="130" height="20" as="geometry"/>
                </mxCell>
            </root>
        </mxGraphModel>
    </diagram>
</mxfile>